<svg xmlns="http://www.w3.org/2000/svg" style="display:none">
  <symbol id="megaphone" viewBox="0 0 16 16">
    <path d="M13 2.5a1.5 1.5 0 0 1 3 0v11a1.5 1.5 0 0 1-3 0v-.214c-2.162-1.241-4.49-1.843-6.912-2.083l.405 2.712A1 1 0 0 1 5.51 15.1h-.548a1 1 0 0 1-.916-.599l-1.85-3.49a68.14 68.14 0 0 0-.202-.003A2.014 2.014 0 0 1 0 9V7a2.02 2.02 0 0 1 1.992-2.013 74.663 74.663 0 0 0 2.483-.075c3.043-.154 6.148-.849 8.525-2.199V2.5zm1 0v11a.5.5 0 0 0 1 0v-11a.5.5 0 0 0-1 0zm-1 1.35c-2.344 1.205-5.209 1.842-8 2.033v4.233c.18.01.359.022.537.036 2.568.189 5.093.744 7.463 1.993V3.85zm-9 6.215v-4.13a95.09 95.09 0 0 1-1.992.052A1.02 1.02 0 0 0 1 7v2c0 .55.448 1.002 1.006 1.009A60.49 60.49 0 0 1 4 10.065zm-.657.975 1.609 3.037.01.024h.548l-.002-.014-.443-2.966a68.019 68.019 0 0 0-1.722-.082z"/>
  </symbol>
  <symbol id="megaphone-fill" viewBox="0 0 16 16">
    <path d="M13 2.5a1.5 1.5 0 0 1 3 0v11a1.5 1.5 0 0 1-3 0v-.214c-2.162-1.241-4.49-1.843-6.912-2.083l.405 2.712A1 1 0 0 1 5.51 15.1h-.548a1 1 0 0 1-.916-.599l-1.85-3.49a68.14 68.14 0 0 0-.202-.003A2.014 2.014 0 0 1 0 9V7a2.02 2.02 0 0 1 1.992-2.013 74.663 74.663 0 0 0 2.483-.075C6.228 6.758 9.14 6.08 11 5V2.5h2zm-1 1.35C9.72 5.056 6.86 5.487 3.51 5.662L5.294 14h.548l-1.805-3.41A2.01 2.01 0 0 0 4 11V7a1.02 1.02 0 0 1 .992-1.013 75.106 75.106 0 0 0 7.008-.53V3.85zm4 9.8a.5.5 0 0 0 1 0v-11a.5.5 0 0 0-1 0v11z"/>
  </symbol>
  <symbol id="graph-up" viewBox="0 0 16 16">
    <path fill-rule="evenodd" d="M0 0h1v15h15v1H0V0Zm14.817 3.113a.5.5 0 0 1 .07.704l-4.5 5.5a.5.5 0 0 1-.74.037L7.06 6.767l-3.656 5.027a.5.5 0 0 1-.808-.588l4-5.5a.5.5 0 0 1 .758-.06l2.609 2.61 4.15-5.073a.5.5 0 0 1 .704-.07Z"/>
  </symbol>
  <symbol id="clipboard-data" viewBox="0 0 16 16">
    <path d="M4 11a1 1 0 1 1 2 0v1a1 1 0 1 1-2 0v-1zm6-4a1 1 0 1 1 2 0v5a1 1 0 1 1-2 0V7zM7 9a1 1 0 0 1 2 0v3a1 1 0 1 1-2 0V9z"/>
    <path d="M4 1.5H3a2 2 0 0 0-2 2V14a2 2 0 0 0 2 2h10a2 2 0 0 0 2-2V3.5a2 2 0 0 0-2-2h-1v1h1a1 1 0 0 1 1 1V14a1 1 0 0 1-1 1H3a1 1 0 0 1-1-1V3.5a1 1 0 0 1 1-1h1v-1z"/>
    <path d="M9.5 1a.5.5 0 0 1 .5.5v1a.5.5 0 0 1-.5.5h-3a.5.5 0 0 1-.5-.5v-1a.5.5 0 0 1 .5-.5h3zm-3-1A1.5 1.5 0 0 0 5 1.5v1A1.5 1.5 0 0 0 6.5 4h3A1.5 1.5 0 0 0 11 2.5v-1A1.5 1.5 0 0 0 9.5 0h-3z"/>
  </symbol>
  <symbol id="eye" viewBox="0 0 16 16">
    <path d="M16 8s-3-5.5-8-5.5S0 8 0 8s3 5.5 8 5.5S16 8 16 8zM1.173 8a13.133 13.133 0 0 1 1.66-2.043C4.12 4.668 5.88 3.5 8 3.5c2.12 0 3.879 1.168 5.168 2.457A13.133 13.133 0 0 1 14.828 8c-.058.087-.122.183-.195.288-.335.48-.83 1.12-1.465 1.755C11.879 11.332 10.119 12.5 8 12.5c-2.12 0-3.879-1.168-5.168-2.457A13.134 13.134 0 0 1 1.172 8z"/>
    <path d="M8 5.5a2.5 2.5 0 1 0 0 5 2.5 2.5 0 0 0 0-5zM4.5 8a3.5 3.5 0 1 1 7 0 3.5 3.5 0 0 1-7 0z"/>
  </symbol>
  <symbol id="broadcast-pin" viewBox="0 0 16 16">
    <path d="M3.05 3.05a7 7 0 0 0 0 9.9.5.5 0 0 1-.707.707 8 8 0 0 1 0-11.314.5.5 0 0 1 .707.707zm2.122 2.122a4 4 0 0 0 0 5.656.5.5 0 1 1-.708.708 5 5 0 0 1 0-7.072.5.5 0 0 1 .708.708zm5.656-.708a.5.5 0 0 1 .708 0 5 5 0 0 1 0 7.072.5.5 0 1 1-.708-.708 4 4 0 0 0 0-5.656.5.5 0 0 1 0-.708zm2.122-2.12a.5.5 0 0 1 .707 0 8 8 0 0 1 0 11.313.5.5 0 0 1-.707-.707 7 7 0 0 0 0-9.9.5.5 0 0 1 0-.707zM6 8a2 2 0 1 1 2.5 1.937V15.5a.5.5 0 0 1-1 0V9.937A2 2 0 0 1 6 8z"/>
  </symbol>
  <symbol id="wind" viewBox="0 0 16 16">
    <path d="M12.5 2A2.5 2.5 0 0 0 10 4.5a.5.5 0 0 1-1 0A3.5 3.5 0 1 1 12.5 8H.5a.5.5 0 0 1 0-1h12a2.5 2.5 0 0 0 0-5zm-7 1a1 1 0 0 0-1 1 .5.5 0 0 1-1 0 2 2 0 1 1 2 2h-5a.5.5 0 0 1 0-1h5a1 1 0 0 0 0-2zM0 9.5A.5.5 0 0 1 .5 9h10.042a3 3 0 1 1-3 3 .5.5 0 0 1 1 0 2 2 0 1 0 2-2H.5a.5.5 0 0 1-.5-.5z"/>
  </symbol>
  <symbol id="map" viewBox="0 0 16 16">
    <path fill-rule="evenodd" d="M15.817.113A.5.5 0 0 1 16 .5v14a.5.5 0 0 1-.402.49l-5 1a.502.502 0 0 1-.196 0L5.5 15.01l-4.902.98A.5.5 0 0 1 0 15.5v-14a.5.5 0 0 1 .402-.49l5-1a.5.5 0 0 1 .196 0L10.5.99l4.902-.98a.5.5 0 0 1 .415.103zM10 1.91l-4-.8v12.98l4 .8V1.91zm1 12.98 4-.8V1.11l-4 .8v12.98zm-6-.8V1.11l-4 .8v12.98l4-.8z"/>
  </symbol>
  <symbol id="pin-map-fill" viewBox="0 0 16 16">
    <path fill-rule="evenodd" d="M3.1 11.2a.5.5 0 0 1 .4-.2H6a.5.5 0 0 1 0 1H3.75L1.5 15h13l-2.25-3H10a.5.5 0 0 1 0-1h2.5a.5.5 0 0 1 .4.2l3 4a.5.5 0 0 1-.4.8H.5a.5.5 0 0 1-.4-.8l3-4z"/>
    <path fill-rule="evenodd" d="M4 4a4 4 0 1 1 4.5 3.969V13.5a.5.5 0 0 1-1 0V7.97A4 4 0 0 1 4 3.999z"/>
  </symbol>
  <symbol id="camera-reels" viewBox="0 0 16 16">
    <path d="M6 3a3 3 0 1 1-6 0 3 3 0 0 1 6 0zM1 3a2 2 0 1 0 4 0 2 2 0 0 0-4 0z"/>
    <path d="M9 6h.5a2 2 0 0 1 1.983 1.738l3.11-1.382A1 1 0 0 1 16 7.269v7.462a1 1 0 0 1-1.406.913l-3.111-1.382A2 2 0 0 1 9.5 16H2a2 2 0 0 1-2-2V8a2 2 0 0 1 2-2h7zm6 8.73V7.27l-3.5 1.555v4.35l3.5 1.556zM1 8v6a1 1 0 0 0 1 1h7.5a1 1 0 0 0 1-1V8a1 1 0 0 0-1-1H2a1 1 0 0 0-1 1z"/>
    <path d="M9 6a3 3 0 1 0 0-6 3 3 0 0 0 0 6zM7 3a2 2 0 1 1 4 0 2 2 0 0 1-4 0z"/>
  </symbol>
  <symbol id="cloud-sun-fill" viewBox="0 0 16 16">
    <path d="M11.473 11a4.5 4.5 0 0 0-8.72-.99A3 3 0 0 0 3 16h8.5a2.5 2.5 0 0 0 0-5h-.027z"/>
    <path d="M10.5 1.5a.5.5 0 0 0-1 0v1a.5.5 0 0 0 1 0v-1zm3.743 1.964a.5.5 0 1 0-.707-.707l-.708.707a.5.5 0 0 0 .708.708l.707-.708zm-7.779-.707a.5.5 0 0 0-.707.707l.707.708a.5.5 0 1 0 .708-.708l-.708-.707zm1.734 3.374a2 2 0 1 1 3.296 2.198c.199.281.372.582.516.898a3 3 0 1 0-4.84-3.225c.352.011.696.055 1.028.129zm4.484 4.074c.6.215 1.125.59 1.522 1.072a.5.5 0 0 0 .039-.742l-.707-.707a.5.5 0 0 0-.854.377zM14.5 6.5a.5.5 0 0 0 0 1h1a.5.5 0 0 0 0-1h-1z"/>
  </symbol>
  <symbol id="facebook" viewBox="0 0 16 16">
    <path d="M16 8.049c0-4.446-3.582-8.05-8-8.05C3.58 0-.002 3.603-.002 8.05c0 4.017 2.926 7.347 6.75 7.951v-5.625h-2.03V8.05H6.75V6.275c0-2.017 1.195-3.131 3.022-3.131.876 0 1.791.157 1.791.157v1.98h-1.009c-.993 0-1.303.621-1.303 1.258v1.51h2.218l-.354 2.326H9.25V16c3.824-.604 6.75-3.934 6.75-7.951"/>
  </symbol>
  <symbol id="envelope" viewBox="0 0 16 16">
    <path d="M0 4a2 2 0 0 1 2-2h12a2 2 0 0 1 2 2v8a2 2 0 0 1-2 2H2a2 2 0 0 1-2-2V4zm2-1a1 1 0 0 0-1 1v.217l7 4.2 7-4.2V4a1 1 0 0 0-1-1H2zm13 2.383-4.758 2.855L15 11.114v-5.73zm-.034 6.878L9.271 8.82 8 9.583 6.728 8.82l-5.694 3.44A1 1 0 0 0 2 13h12a1 1 0 0 0 .966-.739zM1 11.114l4.758-2.876L1 5.383v5.73z"/>
  </symbol>
  <symbol id="github" viewBox="0 0 16 16">
    <path d="M8 0C3.58 0 0 3.58 0 8c0 3.54 2.29 6.53 5.47 7.59.4.07.55-.17.55-.38 0-.19-.01-.82-.01-1.49-2.01.37-2.53-.49-2.69-.94-.09-.23-.48-.94-.82-1.13-.28-.15-.68-.52-.01-.53.63-.01 1.08.58 1.23.82.72 1.21 1.87.87 2.33.66.07-.52.28-.87.51-1.07-1.78-.2-3.64-.89-3.64-3.95 0-.87.31-1.59.82-2.15-.08-.2-.36-1.02.08-2.12 0 0 .67-.21 2.2.82.64-.18 1.32-.27 2-.27.68 0 1.36.09 2 .27 1.53-1.04 2.2-.82 2.2-.82.44 1.1.16 1.92.08 2.12.51.56.82 1.27.82 2.15 0 3.07-1.87 3.75-3.65 3.95.29.25.54.73.54 1.48 0 1.07-.01 1.93-.01 2.2 0 .21.15.46.55.38A8.012 8.012 0 0 0 16 8c0-4.42-3.58-8-8-8z"/>
  </symbol>
  <symbol id="camera" viewBox="0 0 16 16">
    <path d="M15 12a1 1 0 0 1-1 1H2a1 1 0 0 1-1-1V6a1 1 0 0 1 1-1h1.172a3 3 0 0 0 2.12-.879l.83-.828A1 1 0 0 1 6.827 3h2.344a1 1 0 0 1 .707.293l.828.828A3 3 0 0 0 12.828 5H14a1 1 0 0 1 1 1v6zM2 4a2 2 0 0 0-2 2v6a2 2 0 0 0 2 2h12a2 2 0 0 0 2-2V6a2 2 0 0 0-2-2h-1.172a2 2 0 0 1-1.414-.586l-.828-.828A2 2 0 0 0 9.172 2H6.828a2 2 0 0 0-1.414.586l-.828.828A2 2 0 0 1 3.172 4H2z"/>
    <path d="M8 11a2.5 2.5 0 1 1 0-5 2.5 2.5 0 0 1 0 5zm0 1a3.5 3.5 0 1 0 0-7 3.5 3.5 0 0 0 0 7zM3 6.5a.5.5 0 1 1-1 0 .5.5 0 0 1 1 0z"/>
  </symbol>
  <symbol id="layout-text-window" viewBox="0 0 16 16">
    <path d="M3 6.5a.5.5 0 0 1 .5-.5h5a.5.5 0 0 1 0 1h-5a.5.5 0 0 1-.5-.5m0 3a.5.5 0 0 1 .5-.5h5a.5.5 0 0 1 0 1h-5a.5.5 0 0 1-.5-.5m.5 2.5a.5.5 0 0 0 0 1h5a.5.5 0 0 0 0-1z"/>
    <path d="M2 0a2 2 0 0 0-2 2v12a2 2 0 0 0 2 2h12a2 2 0 0 0 2-2V2a2 2 0 0 0-2-2zm12 1a1 1 0 0 1 1 1v1H1V2a1 1 0 0 1 1-1zm1 3v10a1 1 0 0 1-1 1h-2V4zm-4 0v11H2a1 1 0 0 1-1-1V4z"/>
  </symbol>
  <symbol id="mic" viewBox="0 0 16 16">
    <path d="M3.5 6.5A.5.5 0 0 1 4 7v1a4 4 0 0 0 8 0V7a.5.5 0 0 1 1 0v1a5 5 0 0 1-4.5 4.975V15h3a.5.5 0 0 1 0 1h-7a.5.5 0 0 1 0-1h3v-2.025A5 5 0 0 1 3 8V7a.5.5 0 0 1 .5-.5"/>
    <path d="M10 8a2 2 0 1 1-4 0V3a2 2 0 1 1 4 0zM8 0a3 3 0 0 0-3 3v5a3 3 0 0 0 6 0V3a3 3 0 0 0-3-3"/>
  </symbol>
</svg>
